# xmcd
#
# Track frame offsets:
#	150
#	16579
#	55468
#	69470
#	108663
#	128942
#	161301
#	192557
#	214656
#	226846
#	243663
#	275634
#
# Disc length: 4121 seconds
#
# Revision: 1
# Processed by: cddbd v1.5.2PL0 Copyright (c) Steve Scherf et al.
# Submitted via: audiograbber 1.83.01
#
DISCID=ab10170c
DTITLE=Grateful Dead - 76-06-04 Paramount Theatre, Portland OR
DYEAR=1900
DGENRE=
TTITLE0=Promised Land
TTITLE1=Friend Of The Devil
TTITLE2=Mama Tried
TTITLE3=Sugaree
TTITLE4=Cassidy
TTITLE5=Candyman
TTITLE6=Big River
TTITLE7=Brown Eyed Women
TTITLE8=Lazy Lightning
TTITLE9=Supplication
TTITLE10=Mission In The Rain
TTITLE11=Looks Like Rain
EXTD=
EXTT0=
EXTT1=
EXTT2=
EXTT3=
EXTT4=
EXTT5=
EXTT6=
EXTT7=
EXTT8=
EXTT9=
EXTT10=
EXTT11=
PLAYORDER=
